<svg width="480" height="367" viewBox="0 0 480 367" fill="none" xmlns="http://www.w3.org/2000/svg">
<path fill-rule="evenodd" clip-rule="evenodd" d="M113.932 1.70902C107.255 4.15302 104.238 8.12501 97.068 23.915C90.443 38.504 90.306 38.708 84.947 41.913C69.283 51.282 48.605 69.664 36.871 84.65C19.504 106.831 8.58402 130.271 2.67702 158.053C0.268021 169.381 0.00601939 172.669 1.93906e-05 191.611C-0.00598061 216 1.37802 225.737 7.53402 244.611C28.213 308.005 83.906 355.031 149.769 364.711C165.092 366.963 195.81 366.188 209.239 363.21C228.764 358.882 248.37 351.103 264.854 341.147C273.593 335.868 285.639 327.021 291.041 321.913L294.169 318.955L287.65 304.283C284.064 296.213 280.992 289.447 280.824 289.246C280.655 289.045 276.869 292.191 272.411 296.236C233.628 331.426 187.639 343.459 138.942 331.16C99.215 321.126 64.026 292.642 45.224 255.298C35.864 236.707 31.619 219.628 30.761 197.111C30.262 184.019 30.498 179.696 32.284 169.282C37.565 138.474 51.01 112.563 73.403 90.039C94.94 68.376 121.559 54.722 152.264 49.587C167.04 47.117 191.801 47.956 206.413 51.424C228.853 56.749 247.14 65.835 265.667 80.865L272.42 86.344L287.573 79.506L302.726 72.668L295.319 65.795C285.884 57.039 273.689 47.846 263.345 41.693L255.234 36.868L248.464 22.74C241.45 8.10202 238.52 4.30603 232.195 1.66403C226.817 -0.581966 120.082 -0.541983 113.932 1.70902ZM374.413 54.528C365.338 58.587 335.638 71.806 308.413 83.904C236.589 115.819 222.413 122.334 222.413 123.427C222.413 124.384 232.29 147.144 271.749 237.111C304.471 311.717 309.043 321.64 310.54 321.293C311.874 320.983 369.367 295.628 443.163 262.803C463.101 253.935 479.413 246.378 479.413 246.009C479.413 245.64 469.694 223.125 457.814 195.975C445.935 168.825 433.61 140.536 430.425 133.111C421.428 112.134 395.782 52.929 394.363 49.861C393.664 48.349 392.602 47.119 392.002 47.129C391.403 47.139 383.488 50.468 374.413 54.528ZM158.913 59.8C145.753 61.505 128.263 66.631 118.163 71.741L113.413 74.145L113.401 79.878C113.395 83.031 112.273 100.877 110.908 119.535C109.544 138.193 108.548 153.579 108.694 153.726C108.841 153.872 111.392 150.883 114.364 147.082C117.336 143.282 122.5 137.974 125.84 135.288C132.734 129.742 161.036 110.295 198.214 85.556C226.885 66.479 225.833 68.202 211.307 64.12C196.414 59.935 172.857 57.992 158.913 59.8ZM197.75 95.37L162.913 118.611L174.413 119.27C180.738 119.632 187.427 120.403 189.278 120.983C192.442 121.974 194.626 121.136 225.778 106.969C244.002 98.681 259.275 91.68 259.718 91.412C261.126 90.56 248.875 81.509 237.25 74.814L232.587 72.129L197.75 95.37ZM95.338 85.546C73.265 102.112 55.698 126.636 47.656 152.111C42.409 168.733 42.271 167.693 50.661 174.767C54.649 178.131 63.988 186.148 71.413 192.584C99.724 217.123 103.75 220.438 102.96 218.553C102.512 217.485 101.276 213.236 100.212 209.111C97.803 199.77 98.158 183.377 101.828 134.611C105.368 87.566 105.822 79.111 104.805 79.111C104.314 79.111 100.054 82.007 95.338 85.546ZM161.618 127.203C143.08 130.028 125.632 141.897 115.541 158.547C108.329 170.447 104.662 187.57 106.499 200.775C108.697 216.574 114.758 228.317 126.535 239.591C146.971 259.154 175.025 263.473 200.401 250.963C221.274 240.673 236.413 216.904 236.413 194.423C236.413 187.504 236.031 186.329 227.468 166.903C219.132 147.992 218.162 146.288 213.218 141.869C199.999 130.054 180.071 124.39 161.618 127.203ZM359.211 144.763C362.156 146.63 365.231 151.676 366.043 155.977C367.016 161.128 364.74 169.523 359.157 181.376C354.7 190.838 353.833 192.071 351.999 191.556C330.208 185.436 321.071 180.114 317.154 171.259C314.919 166.206 315.375 161.7 318.528 157.692C322.685 152.408 328.562 150.893 334.8 153.499L338.123 154.888L340.282 150.444C343.886 143.027 352.426 140.464 359.211 144.763ZM149.515 155.394C153.438 158.029 156.09 164.279 155.047 168.433C154.675 169.914 153.067 172.585 151.474 174.369C148.864 177.289 148.025 177.611 143.014 177.611C138.129 177.611 137.074 177.234 134.358 174.518C123.904 164.064 137.286 147.179 149.515 155.394ZM41.732 195.361C42.061 204.299 43.032 214.717 43.888 218.512C48.247 237.827 57.044 256.959 68.42 271.862C74.657 280.032 75.324 280.598 78.506 280.417C81.369 280.253 123.063 271.131 146.704 265.494L153.495 263.875L147.048 261.623C143.502 260.384 137.901 257.73 134.602 255.726C131.302 253.721 109.424 235.663 85.984 215.596C62.544 195.529 42.864 179.111 42.249 179.111C41.449 179.111 41.302 183.705 41.732 195.361ZM133.413 183.111C137.533 187.231 134.451 194.111 128.486 194.111C126.508 194.111 124.88 193.249 123.468 191.454C118.457 185.083 127.662 177.36 133.413 183.111ZM439.997 206.647C440.92 208.591 441.503 210.345 441.294 210.544C441.084 210.743 416.388 221.807 386.413 235.13C356.438 248.454 326.983 261.55 320.958 264.233C314.933 266.916 309.638 269.111 309.192 269.111C308.096 269.111 304.9 262.29 305.646 261.544C306.583 260.607 435.777 203.251 437.116 203.177C437.778 203.141 439.074 204.702 439.997 206.647ZM243.024 205.682C242.688 206.558 242.413 208.103 242.413 209.115C242.413 214.056 236.11 229.496 208.038 293.313C201.094 309.098 195.413 322.25 195.413 322.538C195.413 324.09 216.408 318.07 226.56 313.606C242.552 306.575 261.606 292.824 271.147 281.429L275.359 276.398L268.284 260.505C264.393 251.763 257.255 235.494 252.422 224.351C246.941 211.712 243.405 204.689 243.024 205.682ZM209.479 254.798C204.804 257.76 197.674 261.203 193.479 262.525C186.171 264.829 145.149 274.471 105.913 283.107C81.646 288.449 83.645 287.664 86.513 290.724C93.46 298.134 112.73 310.148 125.721 315.165C143.348 321.973 168.116 326.224 180.913 324.638L185.913 324.018L188.607 317.815C190.089 314.403 197.416 297.713 204.889 280.726C212.361 263.739 218.349 249.754 218.194 249.648C218.04 249.542 214.118 251.86 209.479 254.798Z" fill="url(#paint0_linear_120_9)"/>
<defs>
<linearGradient id="paint0_linear_120_9" x1="434.5" y1="366" x2="63.5" y2="59" gradientUnits="userSpaceOnUse">
<stop stop-color="#5E6AD2"/>
<stop offset="1" stop-color="#8B5FD6"/>
</linearGradient>
</defs>
</svg>
