<svg width="32" height="32" viewBox="0 0 32 32" fill="none" xmlns="http://www.w3.org/2000/svg">
<g clip-path="url(#clip0_120_16)">
<path d="M26 0H6C2.68629 0 0 2.68629 0 6V26C0 29.3137 2.68629 32 6 32H26C29.3137 32 32 29.3137 32 26V6C32 2.68629 29.3137 0 26 0Z" fill="url(#paint0_linear_120_16)"/>
<path d="M8 12C8 10.8954 8.89543 10 10 10H12L13 8H19L20 10H22C23.1046 10 24 10.8954 24 12V20C24 21.1046 23.1046 22 22 22H10C8.89543 22 8 21.1046 8 20V12Z" fill="white"/>
<path d="M16 19C17.6569 19 19 17.6569 19 16C19 14.3431 17.6569 13 16 13C14.3431 13 13 14.3431 13 16C13 17.6569 14.3431 19 16 19Z" fill="url(#paint1_linear_120_16)"/>
<path d="M16 17.5C16.8284 17.5 17.5 16.8284 17.5 16C17.5 15.1716 16.8284 14.5 16 14.5C15.1716 14.5 14.5 15.1716 14.5 16C14.5 16.8284 15.1716 17.5 16 17.5Z" fill="white"/>
</g>
<defs>
<linearGradient id="paint0_linear_120_16" x1="29.0021" y1="31.9988" x2="-0.816879" y2="13.1604" gradientUnits="userSpaceOnUse">
<stop stop-color="#5E6AD2"/>
<stop offset="1" stop-color="#8B5FD6"/>
</linearGradient>
<linearGradient id="paint1_linear_120_16" x1="18.4379" y1="18.9998" x2="12.8468" y2="15.4676" gradientUnits="userSpaceOnUse">
<stop stop-color="#5E6AD2"/>
<stop offset="1" stop-color="#8B5FD6"/>
</linearGradient>
<clipPath id="clip0_120_16">
<rect width="32" height="32" fill="white"/>
</clipPath>
</defs>
</svg>
